<?xml version="1.0" encoding="UTF-8"?>
<svg width="350px" height="350px" viewBox="0 0 350 350" version="1.1" xmlns="http://www.w3.org/2000/svg" xmlns:xlink="http://www.w3.org/1999/xlink">
    <!-- Generator: Sketch 49.1 (51147) - http://www.bohemiancoding.com/sketch -->
    <title>MVCC-Seal</title>
    <desc>Created with Sketch.</desc>
    <defs></defs>
    <g id="Page-1" stroke="none" stroke-width="1" fill="none" fill-rule="evenodd">
        <g id="MVCC-Seal" fill="#E9E9E9" fill-rule="nonzero">
            <path d="M349.8,174.7 C349.8,271.6 270.7,350.2 173.6,349.3 C77.8,348.5 -0.6,270 0.6,172.4 C1.9,76.4 80.8,-1.1 177.5,0.2 C272.7,1.4 349.8,79 349.8,174.7 Z M344.3,174.8 C344.4,82.4 269.9,6.8 177.4,5.6 C83.4,4.5 7.2,79.9 6.1,172.7 C5,267.6 82.3,344.9 177.2,343.8 C269.7,342.8 344.3,267.2 344.3,174.8 Z" id="Shape"></path>
            <path d="M174.8,55.5 C206.1,55.9 233.3,66.5 256.3,87.8 C266.6,97.3 274.8,108.5 281,121 C287.3,133.6 291.2,146.8 292.7,160.8 C295.1,183.4 291.4,205 281.5,225.5 C276.1,236.6 269.1,246.6 260.6,255.5 C247,269.7 230.8,279.9 212.1,286.1 C202.2,289.4 192.1,291.3 181.7,291.9 C163.9,292.9 146.6,290.1 130.1,283.4 C116.1,277.7 103.6,269.6 92.7,259.1 C82.8,249.6 74.8,238.8 68.6,226.6 C62.8,215.1 59.1,203.1 57.3,190.4 C56.2,182.3 55.8,174.1 56.4,165.9 C57.4,150.7 61.2,136.3 67.8,122.6 C73.2,111.2 80.3,101 89,92 C104.2,76.3 122.3,65.5 143.4,59.6 C152.8,57 162.5,55.6 172.3,55.5 C173.1,55.5 173.9,55.5 174.8,55.5 Z M59.5,174.1 C59.6,237.7 110.8,289 174,289.3 C237.8,289.7 289.8,238.3 290,174.3 C290.2,110.6 238.9,59.2 175.6,58.8 C111.5,58.4 59.6,110.1 59.5,174.1 Z" id="Shape"></path>
            <path d="M76,295.5 C75.2,294.8 74.4,294.1 73.6,293.3 C76.9,287.3 80.2,281.4 83.4,275.5 C83.4,275.5 83.3,275.4 83.3,275.4 C79,280.3 74.6,285.2 70.2,290.2 C69.4,289.5 68.7,288.8 67.9,288.1 C73.4,282 78.7,275.9 84.2,269.8 C85.5,271 86.8,272.1 88.1,273.3 C85,278.8 81.9,284.3 78.9,289.8 C78.9,289.8 79,289.9 79,289.9 C84.1,286.3 89.1,282.6 94.3,278.9 C95.6,280.1 96.9,281.2 98.2,282.4 C92.8,288.5 87.4,294.6 81.9,300.7 C81.1,300 80.4,299.3 79.6,298.6 C84,293.7 88.3,288.9 92.5,284.2 C92.5,284.1 92.5,284.1 92.4,284.1 C92.4,284.1 92.3,284 92.3,284.1 C86.9,287.8 81.5,291.6 76,295.5 Z" id="Shape"></path>
            <path d="M70.2,252.8 C66,257.7 62,262.5 57.8,267.5 C63.7,264.8 69.4,262.1 75.2,259.5 C76.3,260.9 77.3,262.2 78.4,263.7 C71.9,268.6 65.5,273.5 59,278.5 C58.4,277.6 57.8,276.8 57.1,276 C62.3,272 67.5,268.1 72.6,264.2 C72.6,264.1 72.5,264.1 72.5,264 C66.4,266.7 60.4,269.5 54.3,272.2 C53.6,271.3 53,270.5 52.4,269.6 C56.7,264.4 61,259.2 65.3,254.1 C65.3,254.1 65.2,254 65.2,254 C60,257.9 54.9,261.9 49.6,265.9 C48.9,265 48.4,264.3 47.7,263.4 C54.2,258.5 60.6,253.6 67.1,248.6 C68.1,250 69.1,251.4 70.2,252.8 Z" id="Shape"></path>
            <path d="M25,132.7 C25.6,131 26.1,129.4 26.6,127.7 C32.9,128.2 39.2,128.8 45.5,129.4 C40.1,126.2 34.7,123 29.2,119.7 C29.7,118 30.3,116.4 30.8,114.7 C38.5,117.2 46.1,119.7 53.8,122.2 C53.7,123.3 53.3,124.2 52.9,125.2 C46.7,123.1 40.5,121.1 34.4,119.1 C34.4,119.2 34.3,119.2 34.3,119.3 C40,122.8 45.7,126.2 51.5,129.7 C51.2,130.7 50.9,131.7 50.5,132.8 C43.9,132.3 37.2,131.6 30.6,131.3 C36.7,133.3 42.9,135.3 49.1,137.3 C48.8,138.3 48.5,139.2 48.1,140.3 C40.5,137.8 32.8,135.3 25,132.7 Z" id="Shape"></path>
            <path d="M143.2,44.4 C141.7,44.9 140.4,45.2 139,45.7 C136.4,39.8 133.9,33.9 131.3,28 C131.3,28 131.2,28 131.2,28 C132.4,34.3 133.5,40.6 134.7,47 C133.2,47.5 131.9,47.9 130.5,48.3 C126.9,40.9 123.3,33.5 119.6,26 C120.7,25.7 121.7,25.3 122.9,25 C125.6,31.1 128.3,37.1 131,43 C131.1,43 131.1,43 131.2,43 C130.1,36.6 128.9,30.1 127.8,23.5 C129.2,23.1 130.5,22.7 132,22.2 C134.7,28.3 137.3,34.4 140,40.4 C140,40.4 140.1,40.4 140.1,40.3 C139,33.8 137.9,27.3 136.7,20.6 C137.8,20.3 138.8,20 139.9,19.6 C140.4,22.4 140.7,25.1 141.1,27.8 C141.5,30.5 141.9,33.3 142.2,36 C142.5,38.8 142.8,41.5 143.2,44.4 Z" id="Shape"></path>
            <path d="M124.9,303.9 C122.7,309.7 120.5,315.5 118.3,321.4 C117.3,321 116.3,320.6 115.3,320.2 C118.2,312.5 121.1,305 124,297.3 C125.5,297.9 127,298.4 128.5,299 C128.2,305.7 127.9,312.2 127.6,318.8 C128.9,316 129.9,313 131,310.1 C132.1,307.2 133.2,304.3 134.3,301.3 C135.3,301.7 136.2,302 137.3,302.4 C134.4,310.1 131.5,317.6 128.6,325.3 C127.1,324.7 125.6,324.2 124.1,323.6 C124.4,317 124.7,310.4 125,303.8 C125,303.9 125,303.9 124.9,303.9 Z" id="Shape"></path>
            <path d="M238.2,296.7 C238.2,290.4 244.7,286.3 250.3,289.3 C251,289.7 251.7,290.1 252.3,290.6 C256,294 258.5,298.1 259.2,303.2 C260,308.4 256,312.8 250.7,312.6 C249.8,312.6 249,312.3 248.1,312 C246.5,311.4 245.2,310.3 244,309.1 C241.7,306.6 240,303.7 238.9,300.5 C238.6,299.2 238.4,297.9 238.2,296.7 Z M255.8,304.3 C255.7,303.7 255.7,303.2 255.6,302.6 C254.8,299.1 253,296.1 250.4,293.6 C249.7,292.9 248.9,292.4 248,292 C245.1,290.7 242.1,292.4 241.9,295.5 C241.8,296.5 241.9,297.7 242.2,298.7 C243.1,301.8 244.7,304.4 246.8,306.7 C247.6,307.6 248.6,308.3 249.7,308.7 C251.4,309.4 253,309.1 254.4,307.8 C255.4,307 255.8,305.7 255.8,304.3 Z" id="Shape"></path>
            <path d="M44.5,249.8 C38.6,249.8 35.6,244.7 36.1,240.4 C36.4,238.2 37.5,236.4 39.1,234.9 C42.6,231.8 46.6,229.8 51.3,229.3 C56.6,228.8 60.8,232.7 60.6,238 C60.5,240.2 59.5,242 58.1,243.5 C55.5,246.2 52.4,247.8 48.9,248.9 C47.4,249.3 45.9,249.5 44.5,249.8 Z M44.4,246.2 C44.4,246.1 44.4,246.1 44.4,246.2 C44.7,246.1 44.9,246.1 45.1,246.1 C49,245.6 52.4,243.9 55.3,241.2 C55.9,240.6 56.4,239.9 56.7,239.2 C57.9,236.7 56.6,233.9 53.9,233.1 C52.8,232.8 51.7,232.8 50.6,233 C47.4,233.6 44.5,235 42,237 C40.9,237.9 40,238.9 39.6,240.2 C38.7,242.6 39.9,245.1 42.4,245.9 C43.1,246 43.8,246 44.4,246.2 Z" id="Shape"></path>
            <path d="M59.1,104.4 C57.9,104.2 56.7,104 55.6,103.6 C51.9,102.3 48.7,100.2 46.1,97.3 C44.5,95.5 43.4,93.3 43.5,90.8 C43.6,86.1 47.8,82.4 52.5,82.9 C52.9,82.9 53.3,83 53.7,83.1 C58.7,84.4 62.9,87 65.9,91.2 C68.5,94.9 67.9,99.2 64.8,102.2 C63.1,103.7 61.2,104.3 59.1,104.4 Z M51.5,86.3 C47.8,86.4 45.8,89.5 47.3,92.8 C47.6,93.4 47.9,93.9 48.3,94.4 C50.7,97.3 53.8,99.3 57.5,100.4 C58.6,100.7 59.8,100.8 60.9,100.5 C63,100 64.3,98 64,95.8 C63.8,94.4 63.2,93.3 62.3,92.3 C60,89.7 57.3,87.9 54,86.8 C53.2,86.6 52.3,86.5 51.5,86.3 Z" id="Shape"></path>
            <path d="M310.6,231.8 C310.1,233.1 309.6,234.2 309,235.5 C308,235.1 307.1,234.7 306.1,234.3 C307.1,232 308,229.7 309,227.5 C309.3,227.6 309.5,227.6 309.7,227.7 C312.1,228.7 314.5,229.7 316.9,230.8 C317.4,231 317.7,231.2 317.9,231.7 C319.2,235.6 318.8,239.2 316.2,242.4 C314.5,244.5 312.1,245.3 309.5,245.2 C304.8,245 300.6,243.2 297,240.1 C295,238.4 293.8,236.2 293.8,233.5 C293.8,229.5 296,226.5 299.8,225.4 C300.7,225.1 301.6,225 302.6,224.8 C302.7,226.2 302.4,227.3 302.3,228.5 C301.7,228.6 301.3,228.6 300.8,228.7 C298,229.1 296.6,231.3 297.3,234 C297.7,235.4 298.5,236.6 299.6,237.6 C302.3,240 305.5,241.3 309.2,241.6 C310.1,241.7 311.1,241.5 312,241.3 C313.3,240.9 314.3,240 314.9,238.8 C315.5,237.6 315.7,236.3 315.6,235 C315.6,234.3 315.3,233.8 314.6,233.5 C313.2,233 312,232.4 310.6,231.8 Z" id="Shape"></path>
            <path d="M64.4,62.7 C65.3,61.9 66,61.2 66.9,60.3 C69.2,62.8 71.5,65.2 73.8,67.7 C75.4,66.2 76.9,64.8 78.5,63.3 C76.2,60.8 74,58.3 71.6,55.8 C72.5,55 73.2,54.3 74.1,53.4 C79.6,59.4 85.1,65.3 90.5,71.2 C90.1,72 89.4,72.7 88.1,73.7 C85.7,71.1 83.2,68.4 80.7,65.7 C79.1,67.2 77.6,68.6 76,70.1 C78.5,72.8 80.9,75.4 83.4,78.2 C82.6,79 81.8,79.7 80.9,80.6 C75.5,74.7 70,68.8 64.4,62.7 Z" id="Shape"></path>
            <path d="M245.9,61.2 C244.7,60.5 243.7,60 242.6,59.4 C243.2,57.2 243.8,55.1 244.5,52.9 C242.6,51.8 240.7,50.8 238.7,49.7 C237.2,51.4 235.8,53.1 234.2,54.8 C233.1,54.2 232.1,53.6 230.9,53 C236.7,46.8 242.4,40.7 248.1,34.5 C249.5,35.3 250.8,36 252.1,36.8 C250.2,44.8 248.1,52.9 245.9,61.2 Z M241.1,47.1 C242.6,48 244,48.8 245.5,49.6 C246.7,45.7 247.8,42.1 248.9,38.4 C248.8,38.4 248.8,38.3 248.7,38.3 C246.2,41.2 243.7,44.1 241.1,47.1 Z" id="Shape"></path>
            <path d="M109.5,50.7 C107.5,51.8 105.7,52.9 103.8,54 C104.5,56.2 105.1,58.3 105.8,60.5 C104.7,61.1 103.7,61.7 102.6,62.4 C100.3,54.2 98.1,46.2 95.8,38 C97.1,37.2 98.4,36.5 99.8,35.7 C105.6,41.7 111.4,47.7 117.3,53.8 C116.2,54.5 115.2,55 114.1,55.7 C112.6,54.1 111.1,52.4 109.5,50.7 Z M107.2,48.2 C104.5,45.2 102,42.3 99.4,39.5 C99.3,39.5 99.3,39.6 99.2,39.6 C100.4,43.3 101.6,46.9 102.8,50.7 C104.3,49.9 105.7,49.1 107.2,48.2 Z" id="Shape"></path>
            <path d="M159.9,16.6 C161.1,16.5 162.2,16.4 163.3,16.3 C163.6,20.1 163.8,23.7 164.1,27.3 C164.2,27.3 164.2,27.3 164.3,27.3 C164.4,27 164.6,26.8 164.7,26.5 C165.8,23.3 166.9,20.2 168,17 C168.4,15.9 168.4,15.9 169.6,15.8 C170.4,15.8 171.2,15.7 172.2,15.6 C172,16.2 171.9,16.6 171.7,17 C170.6,19.8 169.5,22.6 168.3,25.5 C168,26.1 168.1,26.6 168.4,27.2 C170.2,30.9 172,34.6 173.8,38.3 C174.1,38.8 174.3,39.4 174.7,40.1 C173.3,40.2 172.1,40.3 170.8,40.4 C169.3,37 167.8,33.8 166.3,30.5 C165.3,31.7 164.6,33.7 164.7,35 C164.8,36.6 164.9,38.1 165,39.7 C165,40 165,40.4 165,40.9 C163.9,41 162.8,41.1 161.6,41.1 C161,32.9 160.5,24.8 159.9,16.6 Z" id="Shape"></path>
            <path d="M113.1,291.7 C114,292.3 115,292.8 115.9,293.4 C115.4,294.2 115,294.9 114.6,295.5 C112.3,299.4 110,303.4 107.6,307.2 C106.8,308.5 105.8,309.8 104.8,310.9 C102.9,312.9 100.8,313.1 98.4,311.9 C94.8,310.1 93.8,307.5 95.3,303.8 C95.9,302.3 96.8,300.8 97.6,299.3 C99.8,295.5 102.1,291.7 104.4,287.9 C104.6,287.6 104.8,287.2 105.1,286.8 C106,287.4 106.9,287.9 107.9,288.5 C107.7,288.9 107.5,289.3 107.3,289.7 C104.9,293.7 102.5,297.7 100.1,301.8 C99.6,302.7 99.1,303.5 98.7,304.4 C98.4,305 98.2,305.7 98.1,306.3 C97.9,307.4 98.5,308.2 99.4,308.8 C100.3,309.3 101.3,309.4 102.1,308.6 C102.9,307.9 103.6,307.1 104.2,306.2 C105.4,304.4 106.4,302.5 107.5,300.7 C109.1,298 110.7,295.3 112.3,292.6 C112.6,292.3 112.8,292.1 113.1,291.7 Z" id="Shape"></path>
            <path d="M230.3,314.5 C231.5,314.3 232.6,314.2 233.8,314 C233.9,314.4 233.9,314.7 233.9,315 C233.9,316.4 233.8,317.7 233.3,319 C231.3,324.8 224.8,325.7 221,322.1 C220,321.1 219.1,320 218.4,318.8 C216.5,315.6 215.3,312.1 215.2,308.4 C215.1,306.6 215.4,304.8 216.3,303.2 C218.7,298.8 224.3,297.9 227.9,301.4 C228.6,302.1 229.2,302.9 230,303.8 C228.9,304.5 227.9,305 226.9,305.6 C226.7,305.3 226.5,305.1 226.2,304.9 C225.7,304.4 225.3,303.9 224.8,303.4 C222.9,301.9 220.5,302.5 219.3,304.5 C218.8,305.4 218.6,306.4 218.6,307.4 C218.7,311.7 220.1,315.5 222.7,318.9 C223.4,319.8 224.2,320.4 225.3,320.7 C227.1,321.3 228.9,320.5 229.7,318.8 C230.4,317.5 230.5,316.1 230.3,314.5 Z" id="Shape"></path>
            <path d="M35.8,219.2 C35.9,220.4 35.9,221.5 36,222.7 C35.7,222.7 35.5,222.8 35.3,222.8 C33.5,222.8 31.8,222.3 30.3,221.4 C25.7,218.8 25.7,213.4 28,210.4 C28.8,209.4 29.7,208.5 30.8,207.8 C34.7,205.4 38.9,204.2 43.5,204.5 C45.7,204.6 47.7,205.4 49.3,207 C52.2,209.9 52.3,214.4 49.5,217.4 C48.6,218.4 47.5,219.1 46.3,219.6 C45.8,218.6 45.4,217.6 44.9,216.6 C45.2,216.4 45.4,216.2 45.6,216.1 C46,215.8 46.5,215.5 46.9,215.1 C49,213.1 48.6,210.1 46,208.7 C44.7,208 43.2,207.9 41.8,208 C39.1,208.2 36.5,208.8 34.1,210 C33.1,210.5 32.2,211.1 31.3,211.8 C30.5,212.5 29.9,213.4 29.8,214.6 C29.6,216.1 30.1,217.3 31.5,218.2 C32.4,218.8 33.4,219 34.4,219.1 C34.8,219.2 35.3,219.2 35.8,219.2 Z" id="Shape"></path>
            <path d="M216.1,43.2 C219.5,37.1 223,31 226.5,24.7 C227.6,25.1 228.7,25.4 229.9,25.8 C225.5,33 221.2,40.2 216.8,47.3 C215.4,46.9 214.2,46.4 212.7,46 C213.3,37.6 214,29.3 214.7,20.8 C215.9,21.2 217,21.5 218.1,21.9 C217.3,29 216.5,36 215.8,43.1 C216,43.2 216,43.2 216.1,43.2 Z" id="Shape"></path>
            <path d="M294,252.9 C295,253.5 295.8,254.1 296.7,254.7 C295.8,256.1 295,257.4 294.1,258.8 C296.2,260.3 298.3,261.6 300.5,263 C301.7,261.1 302.9,259.3 304.1,257.4 C305,258 305.9,258.6 306.9,259.2 C305.1,262.1 303.3,264.8 301.4,267.7 C294.6,263.2 287.8,258.8 281,254.3 C282.8,251.5 284.6,248.8 286.4,245.9 C287.4,246.5 288.2,247.1 289.1,247.7 C287.9,249.5 286.8,251.3 285.6,253.2 C287.5,254.4 289.3,255.7 291.3,257 C292.3,255.6 293.1,254.3 294,252.9 Z" id="Shape"></path>
            <path d="M302.1,102.2 C302.9,103.7 303.5,105.1 304.3,106.5 C303.4,107 302.5,107.5 301.4,108 C300.6,106.6 299.9,105.2 299.1,103.7 C296.8,104.9 294.6,106 292.3,107.2 C293.3,109.2 294.2,111.1 295.3,113.1 C294.4,113.6 293.5,114.1 292.4,114.6 C290.9,111.6 289.4,108.6 287.8,105.6 C295,101.9 302.2,98.2 309.5,94.4 C311,97.4 312.5,100.3 314,103.3 C313,103.8 312.1,104.3 311.1,104.8 C310.1,102.8 309.1,101 308.1,99 C306.1,100.1 304.2,101.1 302.1,102.2 Z" id="Shape"></path>
            <path d="M300.9,214.1 C301.7,210.8 302.4,207.7 303.1,204.4 C304.2,204.6 305.1,204.9 306.2,205.1 C305.9,207.2 305.2,209.2 304.8,211.5 C307,212 309.1,212.5 311.4,213 C311.8,211.4 312.1,209.9 312.5,208.3 C313.6,208.6 314.6,208.8 315.7,209 C315.3,210.6 315,212.1 314.7,213.7 C317.1,214.4 319.6,214.9 322.1,215.5 C322.6,213.3 323.1,211.2 323.6,209 C324.7,209.3 325.7,209.5 326.8,209.7 C326,213 325.3,216.2 324.5,219.6 C316.7,217.8 308.8,216 300.9,214.1 Z" id="Shape"></path>
            <path d="M321.5,121.2 C321.9,122.5 322.2,123.6 322.5,124.9 C319,127.1 315.6,129.2 312,131.4 C314.2,131.4 316.1,131.4 318.1,131.4 C320.1,131.4 322.2,131.4 324.4,131.4 C324.7,132.6 325,133.7 325.4,134.9 C324.8,134.9 324.3,134.9 323.9,134.9 C319.4,134.6 315,134.3 310.5,134.1 C309.8,134.1 309,134.1 308.3,134.3 C306.1,134.9 304,135.5 301.8,136.1 C301.5,136.2 301.1,136.3 300.7,136.4 C300.1,135.4 300.1,134.3 299.6,133.3 C299.9,133.2 300.2,133 300.5,132.9 C302.8,132.2 305,131.6 307.3,130.9 C308,130.7 308.6,130.4 309.2,130 C312.9,127.3 316.6,124.7 320.3,122 C320.7,121.8 321,121.5 321.5,121.2 Z" id="Shape"></path>
            <path d="M184.2,319.8 C185,315.8 185.8,311.8 186.7,307.8 C187.9,307.7 189.1,307.6 190.4,307.5 C190.3,308 190.2,308.4 190.1,308.8 C188.9,313.2 187.7,317.6 186.5,322 C186.3,322.8 186.2,323.7 186.2,324.6 C186.3,326.8 186.5,328.9 186.6,331.1 C186.6,331.5 186.6,331.9 186.6,332.4 C185.5,332.5 184.5,332.6 183.3,332.7 C183.2,331.5 183.1,330.5 183,329.4 C182.9,327.8 182.8,326.1 182.7,324.5 C182.6,323.9 182.5,323.3 182.3,322.8 C180.5,318.5 178.6,314.2 176.7,309.9 C176.5,309.5 176.4,309.2 176.2,308.6 C177.4,308.4 178.5,308.4 179.6,308.3 C179.8,308.3 180.1,308.7 180.2,308.9 C180.6,310 181,311.1 181.4,312.2 C182.2,314.5 183,316.8 183.8,319.1 C183.9,319.3 184,319.5 184.1,319.8 C184,319.8 184.1,319.8 184.2,319.8 Z" id="Shape"></path>
            <path d="M162.5,311 C161.5,310.9 160.6,310.8 159.5,310.7 C159.6,309.6 159.7,308.6 159.8,307.4 C163,307.7 166.1,308 169.3,308.2 C169.2,309.4 169.1,310.4 169,311.5 C168,311.4 167.1,311.3 166,311.3 C165.3,318.3 164.8,325.3 164.1,332.4 C163,332.3 161.9,332.2 160.8,332.1 C161.3,325 162,318.1 162.5,311 Z" id="Shape"></path>
            <path d="M273.8,51.8 C274.7,52.6 275.5,53.4 276.3,54.1 C271.6,59.4 267,64.5 262.3,69.9 C263.6,71.1 264.9,72.3 266.4,73.6 C265.7,74.4 265,75.2 264.2,76.1 C262,74.1 259.8,72.1 257.6,70.1 C262.9,64 268.3,58 273.8,51.8 Z" id="Shape"></path>
            <path d="M287.8,279.4 C289,278 290.2,276.7 291.4,275.3 C292.3,276 293,276.7 293.9,277.5 C291.9,279.8 290,282 288,284.3 C281.9,278.9 275.8,273.6 269.6,268.2 C270.3,267.3 271,266.5 271.8,265.6 C277.2,270.2 282.5,274.8 287.8,279.4 Z" id="Shape"></path>
            <path d="M282.1,91.4 C281.3,92.1 280.5,92.7 279.5,93.5 C277.6,91.2 275.8,88.9 273.9,86.5 C280.2,81.3 286.5,76.2 292.8,71 C293.5,71.9 294.2,72.7 295,73.7 C289.5,78.2 284.2,82.6 278.7,87.1 C279.8,88.5 281,89.9 282.1,91.4 Z" id="Shape"></path>
            <path d="M272.9,293.6 C274.3,292.4 275.7,291.2 277.1,290 C277.8,290.8 278.5,291.6 279.3,292.5 C277.1,294.5 274.9,296.4 272.6,298.4 C267.3,292.2 262,286.1 256.6,279.9 C257.5,279.1 258.3,278.4 259.2,277.6 C263.8,282.9 268.3,288.2 272.9,293.6 Z" id="Shape"></path>
            <path d="M146.8,304.9 C148,305.1 149,305.4 150.1,305.6 C149.7,308.3 149,310.9 148.5,313.6 C148,316.3 147.4,318.9 146.8,321.6 C146.2,324.2 145.7,326.9 145.1,329.7 C144,329.5 142.9,329.2 141.7,329 C143.5,320.9 145.1,313 146.8,304.9 Z" id="Shape"></path>
            <path d="M129.8,156.4 C145.1,180.6 160.2,204.6 175.5,228.8 C189.7,203 203.9,177.3 218,151.7 C218.1,151.7 218.2,151.7 218.3,151.7 C229.3,182.1 240.2,212.5 251.2,242.9 C250.5,243.7 249.8,244.5 249.1,245.2 C233.2,261.6 214,271.9 191.4,275.5 C170.2,278.9 149.8,276 130.4,266.8 C122.6,263.1 115.4,258.4 108.8,252.9 C108.1,252.3 108,251.8 108.2,251 C113.9,226.1 119.6,201.1 125.3,176.2 C126.7,170 128.2,163.7 129.6,157.5 C129.5,157.3 129.6,157 129.8,156.4 Z M132.2,170.7 C132,171.2 131.9,171.5 131.9,171.7 C130.2,179.2 128.6,186.7 126.9,194.2 C126.7,195 126.9,195.6 127.3,196.3 C134,206.3 140.6,216.3 147.2,226.3 C156.9,240.9 166.6,255.5 176.4,270.2 C176.7,270.6 176.9,271 177.3,271.5 C177.6,271 177.8,270.6 178,270.2 C193.4,242.5 208.8,214.9 224.3,187.2 C224.7,186.5 224.8,185.9 224.5,185.1 C222.1,179 219.7,173 217.3,166.9 C217.2,166.7 217.1,166.5 216.9,166.2 C216.8,166.3 216.7,166.3 216.7,166.3 C216.7,166.3 216.6,166.4 216.6,166.4 C203,190.7 189.5,215.1 175.9,239.4 C175.8,239.5 175.8,239.6 175.7,239.7 C175.7,239.8 175.6,239.8 175.5,239.9 C175.5,239.9 175.4,240 175.4,240 C175.4,240 175.3,240 175.2,240 C161,217 146.6,194 132.2,170.7 Z M230.3,238 C229.4,236.1 228.1,235 226.2,234.7 C222.8,234 219.9,235.2 218.7,238.2 C217.3,241.5 217.2,244.9 218.2,248.3 C218.6,249.7 219.4,250.8 220.7,251.4 C223.2,252.6 225.8,252.7 228.3,251.4 C231.7,249.7 232.1,244.3 229,242.2 C226.8,240.7 224.3,240.6 221.8,241.6 C221.2,241.9 220.7,242.4 220,242.9 C220,241.4 220.2,240 220.7,238.7 C221.3,237.3 222.3,236.3 223.9,236.1 C225.6,235.9 227.1,236.3 228,238 C228.1,238.1 228.2,238.2 228.3,238.4 C228.8,238.2 229.5,238.1 230.3,238 Z M130.4,248.4 C130.4,248.6 130.4,248.7 130.4,248.7 C130.4,248.8 130.5,248.9 130.5,249 C131.5,250.8 133,251.8 135.1,252.1 C138.8,252.6 141.4,251 142.6,247.4 C142.8,246.7 143,246 143.1,245.3 C143.4,243 143.5,240.8 142.7,238.5 C142.1,236.6 140.9,235.3 138.9,234.8 C137.1,234.3 135.3,234.3 133.5,234.8 C131.2,235.5 129.9,237.2 129.8,239.7 C129.7,242 130.8,244 132.9,245 C135,246 138.9,246.1 140.7,243.8 C140.7,243.8 140.8,243.8 141,243.7 C141,245.3 140.7,246.8 140,248.2 C138.6,251.2 134.3,251.1 132.9,248.6 C132.8,248.4 132.6,248.1 132.4,247.9 C131.7,248.2 131.1,248.3 130.4,248.4 Z M213.9,234.8 C213.5,234.7 213.3,234.7 213.1,234.7 C212.1,234.5 211.5,234.9 210.9,235.7 C208.6,238.9 206.3,242.1 204,245.4 C203.5,246.1 203.3,246.7 203.7,247.6 C206.3,247.6 208.9,247.6 211.7,247.6 C211.7,249.1 211.7,250.5 211.7,251.9 C212.5,251.9 213.2,251.9 214,251.9 C214,250.4 214,249.1 214,247.6 C214.9,247.5 215.6,247.5 216.4,247.5 C216.4,247 216.4,246.6 216.4,246.1 C215.6,246 214.9,246 214,245.9 C213.9,242.1 213.9,238.5 213.9,234.8 Z M123.7,237.2 C123.7,242.2 123.7,247 123.7,251.9 C124.5,251.9 125.1,251.9 125.9,251.9 C125.9,246.2 125.9,240.5 125.9,234.8 C125,234.6 124.4,234.7 123.8,235 C122.4,235.7 121,236.3 119.6,237 C119.4,237.1 119.2,237.3 118.9,237.5 C119.2,238 119.4,238.5 119.6,239 C120.9,238.4 122.2,237.8 123.7,237.2 Z" id="Shape"></path>
            <path d="M224,90.9 C207.8,121.3 191.7,151.7 175.4,182.4 C166.1,167 156.9,151.8 147.7,136.6 C138.5,121.4 129.3,106.2 120,90.9 C116.6,105.6 113.5,120.4 110.2,135.4 C104.5,127.1 99.1,119.1 93.6,111 C131.2,60.7 209,57.1 251.5,105.7 C246.7,113.9 242,122.1 237,130.6 C232.7,117.2 228.5,104 224.3,90.9 C224.2,90.9 224.1,90.9 224,90.9 Z M157.2,97.5 C157.3,97.7 157.3,97.7 157.3,97.8 C159.9,100.6 160.3,103.8 159.2,107.2 C158.9,108.1 159.1,108.9 159.6,109.7 C161.3,112 161.8,114.5 161.2,117.2 C160.9,118.4 161.1,119.3 161.9,120.2 C163.1,121.7 163.7,123.3 163.7,125.2 C163.7,126.2 164.2,126.9 165.1,127.4 C166,127.9 166.9,128.6 167.7,129.3 C170.5,131.9 172.3,135.2 173.5,138.8 C173.6,139.2 173.8,139.6 173.9,140 C174.3,139.2 174.5,138.4 174.8,137.6 C176.1,133.5 178.1,129.9 181.5,127.1 C182.1,126.6 182.3,126.2 182.4,125.4 C182.4,123.5 183,121.6 184.4,120.3 C185.5,119.3 185.6,118.4 185.3,117.1 C184.8,114.3 185.4,111.6 187.6,109.7 C188.5,108.9 188.7,108.2 188.4,107.1 C187.6,104.1 188,101.2 190.2,98.8 C190.4,98.6 190.5,98.4 190.7,98 C190.3,97.7 189.9,97.5 189.6,97.3 C186.8,95.7 183.9,94 181.1,92.4 C180.7,92.2 180.3,91.9 179.9,91.6 C178.4,90.4 178.3,88.4 179.7,87.1 C180.1,86.7 180.6,86.4 181,86.1 C182.4,85.1 183.9,84.2 185.3,83.3 C185.6,83.1 186,82.7 186,82.4 C186.1,81.6 186,80.8 186,79.9 C184.2,79.9 182.6,79.9 180.9,79.9 C180.6,80.4 180.2,81 179.8,81.7 C180.5,81.8 181.1,81.9 181.7,82 C181.8,81.6 181.8,81.4 181.8,81 C182.6,81.3 183.8,80.5 184.2,81.9 C182.8,82.2 182.8,82.2 182,83.3 C181.2,83 180.4,82.6 179.6,82.2 C179.2,82 178.8,82 178.4,82.2 C175.7,83.2 172.9,83.3 170.1,82.6 C168.5,82.2 167.1,81.6 166.5,79.9 C164.9,79.9 163.3,79.9 161.7,79.9 C161.5,79.9 161.4,80 161.1,80 C161.1,80.5 161.1,81 161.1,81.5 C161,82.4 161.3,83 162.2,83.5 C163.9,84.5 165.5,85.6 167.2,86.6 C169.4,88 169.1,90.9 167,92 C166,92.5 165.1,93.1 164.1,93.7 C161.7,94.9 159.5,96.2 157.2,97.5 Z" id="Shape"></path>
            <path d="M88,229.5 C84,223.2 80.8,216.8 78.3,210 C72.6,194.7 70.7,179 72.5,162.8 C73.8,150.5 77.3,138.8 83,127.6 C83.3,127.9 83.4,128.1 83.6,128.3 C90.1,138.4 96.6,148.5 103.1,158.5 C103.5,159.1 103.5,159.6 103.4,160.3 C100.7,172.4 98.1,184.4 95.4,196.5 C93.1,207 90.8,217.4 88.5,227.9 C88.3,228.3 88.2,228.8 88,229.5 Z" id="Shape"></path>
            <path d="M266.5,220.1 C265.8,218.2 265.2,216.2 264.5,214.3 C259,198 253.6,181.8 248.1,165.5 C246.7,161.4 245.4,157.3 244,153.2 C243.8,152.5 243.8,152 244.2,151.3 C250.2,141.5 256.1,131.7 262,121.8 C262.2,121.5 262.4,121.2 262.7,120.7 C271.8,135.8 276.7,151.9 277.5,169.3 C278.3,187.1 274.7,204 266.8,220 C266.7,220.1 266.6,220.1 266.5,220.1 Z" id="Shape"></path>
            <path d="M224.5,250.8 C221.5,250.7 219.9,248.6 219.9,245.9 C219.9,245.1 220.3,244.5 220.8,244 C222.3,242.4 225.4,242.1 227.2,243.4 C229.4,245 229.2,248.8 226.8,250.1 C226.1,250.4 225.3,250.6 224.5,250.8 Z" id="Shape"></path>
            <path d="M132.1,240.6 C132.1,237.9 133.5,236.3 135.7,236.1 C136.1,236.1 136.6,236.1 137,236.1 C139.6,236.3 141.4,238.9 140.8,241.4 C140.6,242.3 140,242.9 139.2,243.4 C137.7,244.3 136.1,244.4 134.5,243.8 C132.9,243.1 132.2,241.8 132.1,240.6 Z" id="Shape"></path>
            <path d="M211.6,237.4 C211.6,240.3 211.6,243 211.6,245.8 C209.7,245.8 207.9,245.8 206,245.8 C207.9,243 209.7,240.3 211.6,237.4 Z" id="Shape"></path>
            <path d="M185.2,107.2 C184.8,106.9 184.5,106.7 184.1,106.5 C183.6,106.6 183.1,106.8 182.6,106.9 C177.2,107.9 171.8,108.9 166.5,109.9 C166,110 165.5,109.9 165.2,110.5 C165.1,110.7 164.4,110.6 163.9,110.6 C164,110.4 164.1,110.2 164.2,110 C162.8,109.5 161.4,108.9 159.8,108.3 C161.4,106.8 163.1,105.5 164.7,104.1 C164.6,104 164.4,103.9 164.2,103.7 C167.6,104 170.9,103.8 174.2,103.6 C173.7,103.4 173.2,103.2 172.8,103 C172.8,102.9 172.8,102.9 172.8,102.8 C175.4,102.5 177.9,102.3 180.6,102 C180.3,101.3 179.8,101.5 179.4,101.5 C176.7,101.5 174,101.5 171.2,101.5 C170.4,101.5 169.6,101.5 168.5,101.5 C169.6,102.3 170.8,102.2 171.9,102.9 C169.7,103.1 167.7,103.3 165.6,103.5 C166,102.7 166.7,102.3 167.2,101.9 C167.7,101.4 168.3,100.9 168.7,100.6 C173.2,100.6 177.5,100.6 181.9,100.6 C181.9,100.7 181.9,100.7 182,100.8 C181.7,101 181.5,101.1 181.2,101.3 C181.2,101.4 181.2,101.4 181.2,101.5 C182.3,101.5 183.4,101.5 184.5,101.5 C184.5,101.6 184.5,101.7 184.5,101.8 C183.3,101.9 182.2,102.1 180.9,102.2 C181.4,102.8 181.8,103.3 182.3,104 C180.1,104 178.2,104 176.3,104 C176.3,104.1 176.3,104.2 176.3,104.2 C176.8,104.4 177.2,104.5 177.7,104.7 C177.7,104.8 177.7,104.9 177.7,104.9 C173,105.5 168.3,106.1 163.6,106.6 C163.6,106.7 163.6,106.7 163.6,106.8 C169.8,106.6 175.9,106.5 182.3,106.3 C181.8,105.7 181.1,105.7 180.6,105.5 C180,105.3 179.4,105.1 178.8,104.9 C178.8,104.8 178.8,104.7 178.8,104.7 C179.6,104.6 180.4,104.5 181.2,104.4 C181.7,104.3 182.2,104 182.8,103.9 C183.4,103.8 184,103.8 184.6,103.7 C184.6,103.8 184.6,103.9 184.6,103.9 C184.2,104 183.8,104.1 183.3,104.2 C183.6,105 184.2,105.5 184.8,106 C185,106.4 185.1,106.7 185.2,107.2 Z" id="Shape"></path>
            <path d="M177.6,84.5 C176.4,85.5 175.3,86.4 174.2,87.3 C175.1,88.5 175.9,89.5 176.9,90.7 C177,90.4 177.1,90.2 177.1,90.1 C177.5,90.5 177.9,90.9 178.3,91.4 C178.2,91.4 178,91.6 177.7,91.8 C178.3,92.5 178.9,93.1 179.6,93.9 C178.9,93.7 178.3,93.6 177.6,93.4 C177.8,94.2 178.5,94.2 178.9,94.4 C179.4,94.6 179.9,94.8 180.4,95.3 C179.4,95.5 178.4,95.8 177.4,96 C177.4,96.1 177.4,96.2 177.4,96.3 C179.1,96.8 180.7,97.3 182.4,97.8 C182.4,97.9 182.4,97.9 182.4,98 C182.2,98 181.9,98.1 181.7,98.1 C181.4,98.1 181.1,98 181,98.5 C181,98.6 180.6,98.7 180.4,98.8 C176.9,99.3 173.4,99.9 170,100.4 C169.8,100.4 169.6,100.4 169.4,100.4 C168.4,100.1 167.5,99.7 166.5,99.3 C166.5,99.3 166.5,99.2 166.5,99.2 C166.5,99.2 166.5,99.1 166.6,99.1 C166.7,99.1 166.8,99.1 166.8,99 C171.1,98.7 175.3,98.4 179.6,98.1 C179.6,98.1 179.7,98.1 179.8,97.9 C179.4,97.5 178.8,97.4 178.3,97.1 C177,96.2 175.7,96.2 174.2,96.6 C171.8,97.2 169.4,97.7 167.1,98.2 C166.5,98.3 165.9,98.5 165.2,98.7 C165.3,98.8 165.3,99 165.5,99.2 C164.4,99.3 163.4,99.4 162.4,99.4 C162.4,99.3 162.4,99.3 162.4,99.2 C162.9,99 163.4,98.9 164.2,98.6 C163,98.2 162.1,97.9 161.1,97.7 C161.1,97.6 161.1,97.5 161.1,97.5 C163.2,97.3 165.4,97.2 167.6,97 C168.2,96.3 168.9,95.6 169.8,94.7 C168,94.6 166.4,95.1 164.8,94.9 C166.1,94.6 167.5,94.3 168.8,94.1 C168.8,94 168.8,93.9 168.8,93.9 C167.7,93.9 166.7,93.9 165.6,93.9 C165.6,93.8 165.6,93.7 165.5,93.6 C166.6,92.9 167.8,92.3 169,91.8 C169.1,91.8 169.2,91.8 169.3,91.9 C169.9,92.2 170.4,91.7 170.3,91.4 C170.2,90.8 170.6,90.8 170.8,90.6 C171.3,90.1 171.8,89.7 172.2,89.1 C171.4,89.6 170.5,90.1 169.7,90.6 C169.6,90.6 169.6,90.5 169.5,90.5 C170,89.9 170.6,89.2 171.2,88.5 C170.6,88.4 170.1,88.3 169.5,88.2 C170.2,87.6 170.9,87.1 171.5,86.6 C171.5,87.1 171.2,87.5 172,87.7 C172.4,87.3 172.9,86.8 173.3,86.3 C173.3,86.2 173.2,86.1 173.2,86.1 C172.4,86.2 171.6,86.1 171,86.4 C170.6,86.6 170.3,87.1 169.8,87.1 C169.7,87.1 169.6,87.1 169.3,87.1 C169.8,86.6 170.2,86.2 170.6,85.8 C170.6,85.7 170.5,85.7 170.5,85.6 C169.8,85.8 169.1,85.9 168.1,86.1 C169.1,85.1 170,84.3 171.3,84.4 C173.2,84.5 175,84.4 176.9,84.5 C177.1,84.3 177.2,84.4 177.6,84.5 Z M170.3,94.3 C170.6,94.4 170.8,94.5 171.1,94.6 C170.6,95 170.1,95.4 169.7,95.7 C169.3,96 168.9,96.4 168.4,96.7 C168.5,96.8 168.5,96.9 168.5,96.9 C168.9,96.8 169.4,96.9 169.7,96.6 C170.4,96 171,95.2 171.7,94.5 C171.2,93.9 172.1,93.8 172.1,93.4 C171.9,93.3 171.7,93.1 171.4,93 C172.1,92.3 172.8,91.5 173.5,90.8 C173.4,90.8 173.4,90.7 173.3,90.7 C172.4,91.4 171.6,92.1 170.7,92.7 C170.9,92.9 171,93.1 171.1,93.2 C170.9,93.6 170.6,93.9 170.3,94.3 Z M174.7,92.1 C174.7,92.2 174.6,92.3 174.6,92.4 C175.4,92.6 176.3,92.9 177.3,93.2 C177.2,92.6 177.2,92.2 177.1,91.7 C176.2,91.8 175.4,92 174.7,92.1 Z M174.3,94.1 C174.3,94 174.3,93.9 174.3,93.8 C173.8,93.8 173.2,93.3 172.6,94.2 C173.3,94.1 173.8,94.1 174.3,94.1 Z" id="Shape"></path>
            <path d="M180.5,114.6 C180.8,114.7 181.1,114.7 181.4,114.8 C181.2,114.9 181.1,115.1 180.9,115.3 C181.8,116.4 182.7,117.4 183.8,118.7 C180.9,118.9 178.3,119.1 175.6,119.2 C175.6,119.5 175.6,119.7 175.6,119.9 C174.9,119.9 174.2,119.9 173.5,119.9 C172.7,120 171.9,119.8 171.4,119 C172.6,118.3 173.8,117.6 175,116.9 C175,116.8 174.9,116.8 174.9,116.7 C172.6,117.3 170.2,117.9 167.9,118.6 C167.9,118.7 167.9,118.8 167.9,118.8 C168.6,118.9 169.3,119.1 169.9,119 C170.7,118.9 170.7,119.9 171.7,119.8 C171.3,120.2 171.1,120.5 170.8,120.9 C171.6,121 172.3,121.1 173.1,121.2 C173.1,121.3 173.1,121.3 173.1,121.4 C172,121.6 170.9,121.7 169.6,122 C169.8,121.6 169.9,121.4 170.1,121.1 C169.7,121 169.3,120.9 168.8,120.8 C169.1,120.5 169.3,120.3 169.6,120.1 C169.5,120 169.4,119.9 169.3,119.9 C168,119.8 166.7,119.8 165.3,119.7 C165.1,119.7 164.9,119.6 164.8,119.4 C165.2,119.3 165.7,119.1 166.1,119 C166.1,118.9 166.1,118.9 166.1,118.8 C164.7,118.6 163.4,118.5 161.9,118.3 C162.3,117.4 163.1,117 163.7,116.5 C164.3,115.9 165,115.4 165.7,114.7 C165.2,114.6 164.9,114.5 164.5,114.5 C164.7,114.4 164.7,114.4 164.8,114.3 C165.4,114.2 166,113.8 166.5,114.5 C166.6,114.7 167,114.6 167.3,114.6 C170.6,114.7 173.9,114.7 177.1,114.8 C177.5,114.8 177.9,114.9 178.5,114.9 C177.9,115.3 177.5,115.6 177.1,115.9 C177.1,116 177.2,116 177.2,116.1 C178.1,115.9 179,115.6 179.9,115.3 C180.3,115.2 180.4,114.8 180.5,114.6 Z" id="Shape"></path>
            <path d="M175.8,130.1 C175.1,131.8 174.4,133.6 173.7,135.3 C173.1,133.7 173,132.1 172.7,130.4 C172.1,130.4 171.6,130.4 171,130.3 C171.5,129.8 171.8,129.5 172.3,129 C171.2,128.7 170.2,128.5 169.2,128.2 C169.2,128.1 169.2,128 169.2,128 C169.9,127.7 170.6,127.5 171.3,127.2 C169.3,126.5 167.2,126.3 164.9,125.7 C166,124.7 167,123.9 168.2,122.9 C167.6,122.8 167.2,122.7 166.6,122.5 C167.4,122.1 168.2,122.2 169.1,121.9 C169,122.2 168.9,122.4 168.8,122.7 C172,123.1 175.2,123.5 178.5,123.9 C178.1,124.3 177.8,124.6 177.6,124.9 C177.6,125 177.7,125 177.7,125.1 C178.2,124.9 178.6,124.8 179.1,124.6 C179,124.5 179,124.4 178.9,124.2 C178.9,124.2 178.9,124.2 178.9,124.2 C179.3,124.1 179.7,124.1 180.1,124 C180.1,124.1 180.1,124.1 180.2,124.2 C180.1,124.4 179.9,124.5 179.7,124.7 C180,125.2 180.3,125.6 180.7,126.2 C180,126.4 179.3,126.6 178.7,126.7 C177.6,126.8 176.9,127.3 176.6,128.5 C176.6,128.7 176.4,128.9 176.4,129.2 C176.4,129.5 176.5,129.7 176.5,130.1 C176.2,130.1 176,130.1 175.8,130.1 C174.9,129.3 173.8,129.5 172.7,129.1 C172.8,129.6 172.8,129.9 172.9,130.1 C173.9,130.1 174.9,130.1 175.8,130.1 Z M176,126 C176,125.9 175.9,125.8 175.9,125.8 C174.8,126.2 173.6,126.6 172.4,127 C172.5,127.6 172.6,128.1 172.7,128.8 C173.9,127.8 174.9,126.9 176,126 Z" id="Shape"></path>
            <path d="M185.2,107.2 C185.5,107.2 185.9,107.2 186.2,107.2 C186.3,107.7 186.3,108 186.4,108.4 C184.7,108.8 182.9,109.3 181.1,109.7 C180.1,109.9 179.1,110.2 178.1,110.5 C177.7,110.6 177.3,110.9 176.9,111.1 C176.9,111.1 176.9,111.1 176.9,111.1 C176.2,111 175.6,110.9 174.9,110.9 C173.1,110.8 171.3,110.8 169.5,110.8 C169.1,110.8 168.8,110.7 168.4,110.5 C174.1,109.6 179.9,108.6 185.6,107.7 C185.6,107.6 185.6,107.5 185.6,107.4 C185.4,107.3 185.3,107.2 185.2,107.2 C185.2,107.2 185.2,107.2 185.2,107.2 Z" id="Shape"></path>
            <path d="M188.7,98.5 C187.5,98.9 186.2,99.4 185,99.9 C185.1,100.1 185.3,100.3 185.4,100.5 C184.7,100.5 184.1,100.5 183.2,100.5 C183.6,100.2 183.9,100.1 184.2,99.9 C183.3,99.5 182.5,99.1 181.6,98.6 C182.4,98.2 183.3,98.4 183.8,97.5 C183.2,97 182.7,96.4 182.1,95.9 C182.1,95.8 182.2,95.8 182.2,95.7 C183.3,96.1 184.4,96.5 185.5,96.9 C186.6,97.3 187.7,97.7 188.7,98.1 C188.6,98.3 188.7,98.4 188.7,98.5 Z" id="Shape"></path>
            <path d="M173.8,112.7 C171.6,113.1 169.3,113.5 167.1,113.9 C167.1,113.8 167,113.8 167,113.7 C167.5,113.2 167.9,112.8 168.6,112.2 C166.5,111.8 164.5,111.9 162.5,111.4 C163.2,111.3 163.8,111.2 164.5,111 C165.7,110.6 166.8,110.6 167.8,111.3 C169.2,112.2 170.9,112.2 172.5,112.3 C172.9,112.3 173.3,112.4 173.7,112.4 C173.8,112.6 173.8,112.6 173.8,112.7 Z" id="Shape"></path>
            <path d="M176.8,89.4 C176.3,89 175.8,88.6 175.2,88.1 C176.3,86.9 177.3,85.8 178.3,84.7 C178.4,84.6 178.6,84.7 178.9,84.7 C178.5,85.6 178.1,86.4 177.8,87.1 C177.5,87.9 177.1,88.7 176.8,89.4 Z" id="Shape"></path>
            <path d="M178.5,112.9 C177.5,112.8 176.5,112.7 175.5,112.6 C175.5,112.5 175.5,112.5 175.5,112.4 C176.2,112.3 176.9,112.1 177.6,111.9 C177.4,111.4 177.2,111.1 176.7,111 C176.7,111 176.7,111 176.7,111 C176.9,110.9 177.1,110.8 177.3,110.8 C178.9,110.8 180.5,110.8 182.1,110.9 C181.6,111.5 180.9,111.3 180.3,111.5 C179.6,111.7 179,111.7 178.2,111.9 C178.3,112.3 178.4,112.6 178.5,112.9 C178.5,112.9 178.5,112.9 178.5,112.9 Z" id="Shape"></path>
            <path d="M179.5,85.7 C179.8,85.2 180.2,84.8 180.6,84.2 C179.8,83.9 179,83.7 178.2,83.4 C179,83.1 181.6,83.3 182.7,83.7 C181.6,84.5 180.6,85.2 179.6,85.9 C179.6,85.8 179.5,85.8 179.5,85.7 Z" id="Shape"></path>
            <path d="M177.3,121.7 C178.4,121.8 179.6,121.8 180.8,121.9 C180.3,123 179,123.1 178.8,124.3 C178.8,124.3 178.8,124.3 178.8,124.3 C178.5,123.8 178.2,123.3 177.9,122.8 C177.7,122.4 177.5,122.1 177.3,121.7 Z" id="Shape"></path>
            <path d="M177.3,121.7 C176.5,121.6 175.7,121.5 174.9,121.4 C174.9,121.3 174.9,121.3 174.9,121.2 C175.3,121.1 175.8,121 176.3,120.8 C176.3,120.6 176.3,120.3 176.2,120 C177.5,120.1 178.7,120.1 180,120.2 C180,120.3 180,120.3 180,120.4 C179,120.6 178,120.7 176.8,120.9 C177,121.3 177.1,121.5 177.3,121.7 C177.3,121.7 177.3,121.7 177.3,121.7 Z" id="Shape"></path>
            <path d="M166.5,84 C167.4,83.6 168.1,83.2 168.9,82.8 C168.9,83.3 168.9,83.3 169.3,83.7 C168.6,84.3 167.9,84.8 167.1,85.5 C166.9,85 166.7,84.6 166.5,84 Z" id="Shape"></path>
            <path d="M180.5,114.6 C180.1,114.7 179.7,114.7 179.2,114.8 C179.4,114.5 179.5,114.3 179.6,114 C179.2,113.7 178.9,113.3 178.5,112.9 C178.5,112.9 178.5,112.9 178.5,112.9 C179.5,112.9 180.4,112.9 181.4,113 C181.4,113.1 181.4,113.2 181.5,113.2 C181.1,113.4 180.7,113.7 180.4,113.9 C180,114.3 180.1,114.5 180.5,114.6 C180.5,114.6 180.5,114.6 180.5,114.6 Z" id="Shape"></path>
            <path d="M163.1,101.4 C164.1,101.1 164.9,100.8 165.7,100.6 C166.1,100.5 166.3,100.6 166.9,101.4 C165.7,101.4 164.5,101.4 163.1,101.4 Z" id="Shape"></path>
            <path d="M166,81.5 C164.9,81.7 163.8,81.9 162.7,82.1 C162.6,81.8 162.5,81.5 162.4,81.2 C163.7,81.2 164.8,81.2 166,81.2 C166,81.3 166,81.4 166,81.5 Z" id="Shape"></path>
            <path d="M167.1,82.6 C166.5,82.8 165.9,83.1 165.4,83.4 C164.8,83.7 164.4,83.5 164,82.8 C165.1,82.6 166.1,82.5 167.1,82.3 C167.1,82.4 167.1,82.5 167.1,82.6 Z" id="Shape"></path>
            <path d="M182,94.8 C181.7,95 181.3,95.1 181,95.3 C180.7,94.9 180.4,94.6 180.1,94.2 C180.9,94.2 181.4,94.5 182,94.8 Z" id="Shape"></path>
        </g>
    </g>
</svg>