<?xml version="1.0" encoding="utf-8"?>
<!-- Generator: Adobe Illustrator 22.0.1, SVG Export Plug-In . SVG Version: 6.00 Build 0)  -->
<svg version="1.1" id="Layer_1" xmlns="http://www.w3.org/2000/svg" xmlns:xlink="http://www.w3.org/1999/xlink" x="0px" y="0px"
	 viewBox="0 0 522.5 135.8" style="enable-background:new 0 0 522.5 135.8;" xml:space="preserve">
<style type="text/css">
	.st0{fill:#231F20;}
	.st1{fill:#231F20;stroke:#231F20;stroke-width:0.25;}
	.st2{fill:#00703C;}
	.st3{fill:#FFFFFF;}
</style>
<title>MVCC College Logo</title>
<path class="st0" d="M115,7.6c-1.2-1.2-1.2-4.7,0.4-5.2c5,0.3,11.4,0.4,18.6,0.4c4.9,0,9.1,0,14.4-0.4c0,9.1,5.2,18.1,11.6,32
	l9.7,20.8c1.3,3,5.9,11.3,8,15c1.9-3.5,4.3-8.1,8.3-16.8l7.5-16.2c7.1-15.2,10.3-22.1,13.6-34.8c5.2,0.4,10.5,0.6,15.8,0.4
	c4.9,0,11.6-0.1,16.9-0.4c1.6,0.9,1.6,3.7,0.4,5.2L236,8.3c-6,1-9,2.8-9,10.6c0,30.4,0.3,46.3,1.2,64.8c0.3,6.8,0.9,10.3,6.6,11
	l4.7,0.6c1.2,1.2,1.2,4.6-0.3,5.2c-6.8-0.3-13.1-0.4-20.3-0.4c-6.6,0-14.7,0.2-21.8,0.4c-1.8-0.7-1.9-4.1-0.4-5.2l4.4-0.6
	c6.8-0.9,6.8-2.7,6.8-11.6l-0.3-38.3V28.1h-0.3c-10.9,23.6-22.7,48.2-32.4,73.1c-0.9,0.7-1.9,1-3,1c-1.3,0-2.7-0.3-3.8-0.9
	c-5.7-18.2-23.2-54-31.5-73.2h-0.3c-0.6,9.6-0.9,15.3-1,23c-0.1,9.6-0.3,24.3-0.3,33.2c0,7.4,0.9,9.4,6.8,10.3l5.8,0.9
	c1.2,1,0.9,4.4-0.3,5.2c-5.4-0.3-11.8-0.4-17.4-0.4c-4.7,0-10.8,0.2-16.7,0.4c-1.9-0.6-1.9-4.4-0.6-5.2l2.7-0.4
	c7.5-1.3,8-2.2,8.8-11.3c0.7-7.2,1.5-20,2.4-34c0.6-9.9,1-21.8,1-29.8c0-8.4-3.2-10.6-9.1-11.6L115,7.6z"/>
<path class="st0" d="M309.9,63.6c-7.5,17.8-11.5,29.5-14.9,37.7c-1.6,0.9-3.4,1.3-5.2,1.2c-1.4,0.1-2.8-0.3-4-1.2
	c-1.6-4-4.1-11.8-6.2-16.8l-23.9-60c-5.6-14.1-6.3-14.4-11.1-15.6l-5.9-1.5c-1.2-1.6-0.7-4.3,0.6-5c7.5,0.1,12.4,0.4,20,0.4
	c6.8,0,13.1-0.1,22.1-0.4c1.2,0.9,1,3.7,0.1,5l-4.4,0.9c-2.6,0.6-3.7,1.5-3.7,2.8s2.4,7.4,5.9,16.2l13,33.2
	c2.1,5.4,3.5,8.8,4.6,11.3c1.2-2.5,3-6.5,4.7-10.9l5.5-13.8c3.7-9.3,9.9-25.8,11.6-30.8c0.7-1.7,1.2-3.5,1.5-5.3c0-1-0.4-1.6-4-2.5
	l-4.3-1c-1.2-1.2-1.2-4.3,0.6-5c6.9,0.3,12.5,0.4,18.1,0.4c5,0,9.4-0.1,13.7-0.4c1.2,0.6,1.3,4.1,0.3,5L341,8.2
	c-4.1,0.7-6.2,2.1-8.1,5.2c-3.2,4.9-7.2,12.8-12.2,24.8L309.9,63.6z"/>
<path class="st0" d="M417.9,4.3c0.1,7.7,0.7,15.4,1.8,23c-0.6,1.8-4.6,2.4-5.6,1c-4-13.7-13.4-21.1-27.7-21.1
	c-16.4,0-33.9,14-33.9,43.3s16.9,45.1,34.6,45.1s26.1-12.8,30.1-22.8c1.2-1.2,4.7-0.7,5.6,1c-1,10.9-3.5,19.8-5.6,23.1
	c-8,2.2-18.4,5.4-29.9,5.4c-14.4,0-29.2-3.4-39.6-11.2c-10.6-8.1-18.7-20.3-18.7-38.6c0-18,7.7-30.6,17.8-39
	c10.5-8.7,25.5-13.1,40.8-13.1C402.6,0.5,413.5,4,417.9,4.3z"/>
<path class="st0" d="M517.7,4.3c0.1,7.7,0.7,15.4,1.8,23c-0.6,1.8-4.6,2.4-5.6,1c-4-13.7-13.4-21.1-27.7-21.1
	c-16.4,0-33.9,14-33.9,43.3s16.9,45.1,34.6,45.1c17.8,0,26.1-12.8,30.1-22.8c1.2-1.2,4.7-0.7,5.6,1c-1,10.9-3.5,19.8-5.6,23.1
	c-8,2.2-18.4,5.4-29.9,5.4c-14.4,0-29.2-3.4-39.6-11.2c-10.6-8.1-18.7-20.3-18.7-38.6c0-18,7.7-30.6,17.8-39
	C457,4.9,472,0.5,487.3,0.5C502.4,0.5,513.3,4,517.7,4.3z"/>
<path class="st1" d="M15.1,119.2L15.1,119.2l-4.8,15.7H7.8l-4.5-15.7H3.3v15.7H0.1v-18.9h5.2l3.9,14.1h0.1l4-14.1h5v18.9h-3.2V119.2
	z"/>
<path class="st1" d="M31,115.8c3.9,0,7.5,2.9,7.5,9.7s-3.6,9.7-7.5,9.7s-7.5-2.9-7.5-9.7S27.1,115.8,31,115.8z M31,132.5
	c2.2,0,3.9-1.9,3.9-7s-1.8-7.1-3.9-7.1s-3.9,1.9-3.9,7.1S28.8,132.6,31,132.5L31,132.5z"/>
<path class="st1" d="M43.9,116.1h3.5v7.7h5.6v-7.7h3.5V135h-3.5v-8.3h-5.6v8.3h-3.5V116.1z"/>
<path class="st1" d="M71.9,130.4h-6.5l-1.3,4.5h-3.5l6.3-18.9h3.8l6.1,18.9h-3.6L71.9,130.4z M71.2,127.8l-2.4-8.8h-0.1l-2.6,8.8
	H71.2z"/>
<path class="st1" d="M89.8,119.5L89.8,119.5l-3.1,15.5h-4.1l-3.8-18.9h3.2l2.6,14.5h0.1l2.8-14.5h4.2l2.8,14.5h0.1l2.8-14.5h3.1
	l-3.9,18.9h-4.1L89.8,119.5z"/>
<path class="st1" d="M105,116.1h3.5v8h0.1l5.4-8h4l-6.4,8.9l6.9,10h-4.2l-5.7-8.9h-0.1v8.9h-3.5L105,116.1z"/>
<path class="st1" d="M130,116.1h3.8l3.8,14.5l0,0l3.9-14.5h3.6l-5.8,18.9h-3.6L130,116.1z"/>
<path class="st1" d="M157.5,130.4H151l-1.4,4.5h-3.5l6.3-18.9h3.8l6.1,18.9h-3.6L157.5,130.4z M156.8,127.8l-2.4-8.8h-0.1l-2.6,8.8
	H156.8z"/>
<path class="st1" d="M166.5,116.1h3.5v16.1h6.2v2.8h-9.7L166.5,116.1z"/>
<path class="st1" d="M180.6,116.1h3.5v16.1h6.2v2.8h-9.7L180.6,116.1z"/>
<path class="st1" d="M194.9,116.1h9.9v2.8h-6.4v5h6.1v2.8h-6.1v5.6h6.7v2.8h-10.2V116.1z"/>
<path class="st1" d="M214.3,127.4l-5.6-11.3h3.7l3.7,7.5l3.5-7.5h3.7l-5.6,11.4v7.5h-3.5L214.3,127.4z"/>
<path class="st1" d="M248.8,134.5c-1.3,0.5-2.7,0.7-4.1,0.7c-5.7,0-8.7-4.2-8.7-9.7s3-9.7,8.6-9.7c1.4,0,2.9,0.3,4.2,0.8l-0.2,3.1
	c-1.1-0.6-2.3-1-3.6-1c-2.9,0-5.3,1.9-5.3,6.8s2.5,6.8,5.3,6.8c1.3,0.1,2.5-0.3,3.6-1L248.8,134.5z"/>
<path class="st1" d="M260.6,115.8c3.9,0,7.5,2.9,7.5,9.7s-3.6,9.7-7.5,9.7s-7.5-2.9-7.5-9.7S256.7,115.8,260.6,115.8z M260.6,132.5
	c2.2,0,3.9-1.9,3.9-7s-1.8-7.1-3.9-7.1s-4,1.9-4,7.1S258.4,132.6,260.6,132.5L260.6,132.5z"/>
<path class="st1" d="M288.4,119.2L288.4,119.2l-4.8,15.7h-2.5l-4.5-15.7h0v15.7h-3.1v-18.9h5.2l3.9,14.1l0,0l4-14.1h5v18.9h-3.1
	V119.2z"/>
<path class="st1" d="M312.5,119.2L312.5,119.2l-4.8,15.7h-2.5l-4.5-15.7h0v15.7h-3.1v-18.9h5.2l3.9,14.1h0l4-14.1h5v18.9h-3.1
	L312.5,119.2z"/>
<path class="st1" d="M325,116.1v12.2c0,3.1,1,4.2,3,4.2s3-1,3-4.2v-12.2h3.5v12.2c0,5-2.9,6.9-6.4,6.9s-6.4-1.9-6.4-6.9v-12.2H325z"
	/>
<path class="st1" d="M340.3,116.1h4.1l6.3,14.8h0v-14.8h3.1v18.9h-4.1l-6.2-14.7h0v14.7h-3.1V116.1z"/>
<path class="st1" d="M359.9,116.1h3.5v18.9h-3.5V116.1z"/>
<path class="st1" d="M372.3,118.8h-4.2v-2.8H380v2.8h-4.2v16.1h-3.5L372.3,118.8z"/>
<path class="st1" d="M388.4,127.4l-5.6-11.3h3.7l3.7,7.5l3.5-7.5h3.7l-5.6,11.4v7.5h-3.5V127.4z"/>
<path class="st1" d="M422.9,134.5c-1.3,0.5-2.7,0.7-4.1,0.7c-5.7,0-8.7-4.2-8.7-9.7s2.9-9.7,8.6-9.7c1.4,0,2.9,0.3,4.2,0.8l-0.2,3.1
	c-1.1-0.6-2.3-1-3.6-1c-2.9,0-5.3,1.9-5.3,6.8s2.5,6.8,5.3,6.8c1.3,0.1,2.5-0.3,3.6-1L422.9,134.5z"/>
<path class="st1" d="M434.8,115.8c3.9,0,7.5,2.9,7.5,9.7s-3.6,9.7-7.5,9.7s-7.5-2.9-7.5-9.7S430.9,115.8,434.8,115.8z M434.8,132.5
	c2.2,0,4-1.9,4-7s-1.8-7.1-4-7.1s-3.9,1.9-3.9,7.1S432.6,132.6,434.8,132.5L434.8,132.5z"/>
<path class="st1" d="M447.5,116.1h3.5v16.1h6.2v2.8h-9.7V116.1z"/>
<path class="st1" d="M461.6,116.1h3.5v16.1h6.2v2.8h-9.7V116.1z"/>
<path class="st1" d="M475.8,116.1h9.9v2.8h-6.5v5h6.1v2.8h-6.1v5.6h6.7v2.8h-10.2V116.1z"/>
<path class="st1" d="M498.9,124.4h6.1v9.9c-1.6,0.7-3.4,1.1-5.1,1c-6,0-9.3-4.1-9.3-9.7s3.2-9.7,9.3-9.7c1.6,0,3.1,0.3,4.6,0.8
	l-0.2,3.1c-1.3-0.8-2.8-1.2-4.3-1.2c-3.7,0-5.6,3-5.6,6.9c0,4.2,1.9,6.9,5.5,6.9c0.7,0,1.4-0.1,2-0.4v-5.1H499L498.9,124.4z"/>
<path class="st1" d="M511.1,116.1h9.9v2.8h-6.5v5h6.1v2.8h-6.1v5.6h6.7v2.8h-10.2V116.1z"/>
<rect x="0.1" y="1.8" class="st2" width="98.2" height="98.2"/>
<path class="st3" d="M79.9,20.1c-24.6,0.1-44.5,20-44.7,44.6C59.9,64.7,79.8,44.7,79.9,20.1z"/>
<path class="st3" d="M18.5,15.8C1.1,33.3,1.1,61.5,18.5,79C35.8,61.5,35.8,33.3,18.5,15.8z"/>
<path class="st3" d="M21.1,81.6c17.5,17.3,45.7,17.3,63.2,0C66.8,64.3,38.6,64.3,21.1,81.6z"/>
</svg>
